<svg xmlns="http://www.w3.org/2000/svg" version="1.1" xmlns:xlink="http://www.w3.org/1999/xlink" width="512" height="512" x="0" y="0" viewBox="0 0 512 512" style="enable-background:new 0 0 512 512" xml:space="preserve" class=""><g><linearGradient id="a" x1="409.502" x2="116.95" y1="143.228" y2="435.781" gradientUnits="userSpaceOnUse"><stop offset="0" stop-color="#ef3e3d"></stop><stop offset="1" stop-color="#ffc828"></stop></linearGradient><path fill="url(#a)" fill-rule="evenodd" d="M301.878 506c25.459-37.65 27.805-78.314 7.038-121.994-5.775 23.434-16.339 37.656-31.693 42.669 14.258-40.719 2.344-84.711-35.743-131.976-.822 48.816-12.553 84.376-35.194 106.681-31.19 30.697-30.823 65.341 1.1 103.931-132.518-70.522-151.214-165.106-56.09-283.749 5.9 28.662 20.197 46.259 42.893 52.791C169.45 169.372 195.479 79.921 272.275 6c.472 164.047 50.777 178.628 114.38 251.855 68.672 87.876 28.316 189.287-84.777 248.145z" clip-rule="evenodd" opacity="1" data-original="url(#a)" class=""></path></g></svg>