<svg xmlns="http://www.w3.org/2000/svg" version="1.1"  width="512" height="512" x="0" y="0" viewBox="0 0 512 512" style="enable-background:new 0 0 512 512" xml:space="preserve"><g><g xmlns="http://www.w3.org/2000/svg" clip-rule="evenodd" fill-rule="evenodd"><path d="m307.158 261.621-125.189 108.848v-44.685c0-2.207-1.793-4-4-4h-165.967v-120.324h165.967c2.209 0 4-1.79 4-4v-44.685zm138.841-243.964 48.346 48.346h-48.346z" fill="#9bc9ff" ></path><path d="m362.002 102.74h-162.59c-4.425 0-8.005-3.58-8.005-8 0-4.406 3.58-7.995 8.005-7.995h162.589c4.42 0 8 3.59 8 7.995.001 4.42-3.579 8-7.999 8zm71.907 325.749c0 4.425-3.59 8.005-8 8.005h-226.497c-4.425 0-8.005-3.58-8.005-8.005 0-4.406 3.58-8 8.005-8h226.497c4.41 0 8 3.595 8 8zm0-66.747c0 4.42-3.59 8-8 8h-180.01c-4.42 0-8-3.581-8-8 0-4.41 3.58-8 8-8h180.01c4.41 0 8 3.59 8 8zm0-133.503c0 4.425-3.59 8.005-8 8.005h-96.757c-4.42 0-8-3.58-8-8.005 0-4.406 3.58-7.996 8-7.996h96.757c4.41 0 8 3.59 8 7.996zm0 66.751c0 4.42-3.59 8-8 8h-96.757c-4.42 0-8-3.58-8-8 0-4.406 3.58-8 8-8h96.757c4.41 0 8 3.595 8 8zm0-133.498c0 4.42-3.59 8-8 8h-180.01c-4.42 0-8-3.58-8-8 0-4.411 3.58-8 8-8h180.01c4.41-.001 8 3.589 8 8zm-304.598 334.509h366.689v-418.002h-54.001c-4.42 0-8-3.575-8-7.995v-54.002h-304.688v173.458h40.662v-45.468c0-3.128 1.826-5.981 4.679-7.279 2.849-1.302 6.198-.811 8.557 1.25l135.291 117.621c1.75 1.519 2.75 3.717 2.75 6.038 0 2.311-1 4.519-2.75 6.043l-135.291 117.616c-1.481 1.293-3.349 1.972-5.25 1.972-1.118 0-2.25-.241-3.307-.722-2.854-1.297-4.679-4.151-4.679-7.278v-45.473h-40.662zm-113.309-290.541v112.324h161.967c4.41 0 8 3.58 8 8v35.907l115.093-100.069-115.093-100.069v35.907c0 4.425-3.59 8-8 8zm433.997-178.147 34.69 34.689h-34.69zm59.662 37.039-62.011-62.011c-1.5-1.5-3.533-2.34-5.651-2.34h-320.688c-4.42 0-8 3.58-8 8v181.458h-105.309c-4.42 0-8 3.58-8 8v128.324c0 4.42 3.58 7.995 8 7.995h105.309v170.222c0 4.42 3.58 8 8 8h382.69c4.42 0 8-3.58 8-8v-433.997c0-2.122-.84-4.151-2.34-5.651z" fill="#57a4ff" ></path></g></g></svg>