<svg xmlns="http://www.w3.org/2000/svg" version="1.1" width="512"
     height="512" x="0" y="0" viewBox="0 0 512 512" style="enable-background:new 0 0 512 512" xml:space="preserve"><g><path xmlns="http://www.w3.org/2000/svg" d="m346.839 264.218-90.839-165.162-90.839 165.162-36.161 125.242 304.231-9.629 45.737-198.194z" fill="#ffd064" ></path><path xmlns="http://www.w3.org/2000/svg" d="m33.032 181.637 49.549 214.71h346.838l3.812-16.516h-272.731l4.661-45.038v-70.575z" fill="#ffc250" ></path><path d="m66.065 181.637c0 5.954-1.575 11.54-4.331 16.364-5.689 9.957-16.411 13.792-28.701 13.792-18.244 0-29.033-11.913-29.033-30.156 0-12.303 2.726-23.034 12.7-28.719 4.817-2.745 10.391-4.313 16.332-4.313 18.243 0 33.033 14.789 33.033 33.032z" fill="#ffe07d" ></path><path  d="m45.419 202.282c-18.243 0-33.032-14.789-33.032-33.032 0-5.928 1.579-11.522 4.313-16.332-9.991 5.681-16.7 16.404-16.7 28.719 0 18.243 14.789 33.032 33.032 33.032 12.315 0 23.041-6.707 28.721-16.699-4.809 2.735-10.405 4.312-16.334 4.312z" fill="#ffd064"></path><path d="m371.613 396.347c-4.561 0-8.258-3.697-8.258-8.258v-41.29h-16.516v41.29c0 4.561-3.697 8.258-8.258 8.258h-34.449c-4.38 0-8.582-1.74-11.679-4.838l-23.358-23.359c-3.097-3.097-4.837-7.298-4.837-11.678v-50.964h-16.516v50.967c0 4.38-1.74 8.582-4.838 11.679l-23.357 23.356c-3.097 3.097-7.298 4.837-11.678 4.837h-34.449c-4.561 0-8.258-3.697-8.258-8.258v-41.29h-16.516v41.29c0 4.561-3.697 8.258-8.258 8.258h-24.774l-14.114 39.113 314.5 1.5 13.419-7.581v-33.032z" fill="#ffe07d" ></path><g fill="#fff"><circle cx="256" cy="297.25" r="16.516" fill="#ffffff" ></circle><circle cx="156.903" cy="338.54" r="16.516" fill="#ffffff" ></circle><circle cx="355.097" cy="338.54" r="16.516" fill="#ffffff" ></circle></g><path d="m115.613 412.863v-16.516h-33.032v41.29c0 4.561 3.697 8.258 8.258 8.258h330.323c4.561 0 8.258-3.697 8.258-8.258v-8.258h-297.29c-9.123 0-16.517-7.395-16.517-16.516z" fill="#ffd064" ></path><path d="m289.032 99.137c0 5.954-1.575 11.54-4.331 16.364-5.689 9.957-16.411 13.792-28.701 13.792-18.243 0-29.032-11.913-29.032-30.156 0-12.303 2.726-23.034 12.7-28.719 4.817-2.745 10.391-4.313 16.332-4.313 18.243 0 33.032 14.789 33.032 33.032z" fill="#ffe07d" ></path><path d="m268.387 119.782c-18.243 0-33.032-14.789-33.032-33.032 0-5.928 1.579-11.522 4.313-16.332-9.991 5.68-16.7 16.404-16.7 28.719 0 18.243 14.789 33.032 33.032 33.032 12.315 0 23.041-6.707 28.721-16.699-4.81 2.735-10.405 4.312-16.334 4.312z" fill="#ffd064" ></path><path d="m512 181.637c0 5.954-1.575 11.54-4.331 16.364-5.689 9.957-16.411 13.792-28.701 13.792-18.243 0-29.032-11.913-29.032-30.156 0-12.303 2.726-23.034 12.7-28.719 4.817-2.745 10.391-4.313 16.332-4.313 18.243 0 33.032 14.789 33.032 33.032z" fill="#ffe07d" ></path><path d="m491.355 202.282c-18.243 0-33.032-14.789-33.032-33.032 0-5.928 1.579-11.522 4.313-16.332-9.991 5.68-16.7 16.404-16.7 28.719 0 18.243 14.789 33.032 33.032 33.032 12.315 0 23.041-6.707 28.721-16.699-4.81 2.735-10.406 4.312-16.334 4.312z" fill="#ffd064"></path></g></svg>