<svg xmlns="http://www.w3.org/2000/svg" width="512" height="512" x="0" y="0" viewBox="0 0 66 66" style="enable-background:new 0 0 512 512" xml:space="preserve" > <path d="m42.14 41v-4.57l-2.57-.86c-.19-1.08-.47-2.12-.84-3.13l1.8-2.03-2.29-3.96-2.65.54c-.7-.83-1.47-1.6-2.3-2.3l.54-2.65-3.96-2.29-2.03 1.8c-1.01-.37-2.05-.65-3.13-.84l-.86-2.57h-4.57l-.86 2.57c-1.08.19-2.12.47-3.13.84l-2.03-1.8-3.96 2.29.54 2.65c-.83.7-1.6 1.47-2.3 2.3l-2.64-.54-2.29 3.96 1.8 2.03c-.37 1.01-.65 2.05-.84 3.13l-2.57.86v4.57l2.57.86c.19 1.08.47 2.12.84 3.13l-1.8 2.03 2.29 3.96 2.65-.54c.7.83 1.47 1.6 2.3 2.3l-.54 2.65 3.96 2.29 2.03-1.8c1.01.37 2.05.65 3.13.84l.86 2.57h4.57l.86-2.57c1.08-.19 2.12-.47 3.13-.84l2.03 1.8 3.96-2.29-.54-2.65c.83-.7 1.6-1.47 2.3-2.3l2.65.54 2.29-3.96-1.8-2.03c.37-1.01.65-2.05.84-3.13zm-20.57 4.57c-3.79 0-6.86-3.07-6.86-6.86s3.07-6.86 6.86-6.86 6.86 3.07 6.86 6.86-3.07 6.86-6.86 6.86z" fill="#5ac6f7" ></path><g><path d="m21.57 52.43c-7.56 0-13.71-6.15-13.71-13.71s6.15-13.72 13.71-13.72 13.71 6.15 13.71 13.71-6.15 13.72-13.71 13.72zm0-22.86c-5.04 0-9.14 4.1-9.14 9.14s4.1 9.14 9.14 9.14 9.14-4.1 9.14-9.14-4.1-9.14-9.14-9.14z" fill="#8cdeff"></path></g><path d="m58.14 19.41v-2.54l-1.43-.48c-.1-.6-.26-1.18-.47-1.74l1-1.13-1.27-2.2-1.47.3c-.39-.46-.82-.89-1.28-1.28l.3-1.47-2.2-1.27-1.13 1c-.56-.2-1.14-.36-1.74-.47l-.48-1.43h-2.54l-.48 1.43c-.6.1-1.18.26-1.74.47l-1.13-1-2.2 1.27.3 1.47c-.46.39-.89.82-1.28 1.28l-1.47-.3-1.27 2.2 1 1.13c-.2.56-.36 1.14-.47 1.74l-1.43.48v2.54l1.43.48c.1.6.26 1.18.47 1.74l-1 1.13 1.27 2.2 1.47-.3c.39.46.82.89 1.28 1.28l-.3 1.47 2.2 1.27 1.13-1c.56.2 1.14.36 1.74.47l.48 1.43h2.54l.48-1.43c.6-.1 1.18-.26 1.74-.47l1.13 1 2.2-1.27-.3-1.47c.46-.39.89-.82 1.28-1.28l1.47.3 1.27-2.2-1-1.13c.2-.56.36-1.14.47-1.74zm-11.43 2.54c-2.1 0-3.81-1.71-3.81-3.81s1.71-3.81 3.81-3.81 3.81 1.71 3.81 3.81-1.7 3.81-3.81 3.81z" fill="#ffd663"></path><g><path d="m46.71 25.76c-4.2 0-7.62-3.42-7.62-7.62s3.42-7.62 7.62-7.62 7.62 3.42 7.62 7.62-3.41 7.62-7.62 7.62zm0-12.7c-2.8 0-5.08 2.28-5.08 5.08s2.28 5.08 5.08 5.08 5.08-2.28 5.08-5.08-2.27-5.08-5.08-5.08z" fill="#fcab49"></path></g><path d="m65 46.84v-2.54l-1.43-.48c-.1-.6-.26-1.18-.47-1.74l1-1.13-1.27-2.2-1.47.3c-.39-.46-.82-.89-1.28-1.28l.3-1.47-2.2-1.27-1.13 1c-.56-.2-1.14-.36-1.74-.47l-.48-1.43h-2.53l-.48 1.43c-.6.1-1.18.26-1.74.47l-1.13-1-2.2 1.27.3 1.47c-.46.39-.89.82-1.28 1.28l-1.47-.3-1.27 2.2 1 1.13c-.2.56-.36 1.14-.47 1.74l-1.43.48v2.54l1.43.48c.1.6.26 1.18.47 1.74l-1 1.13 1.27 2.2 1.47-.3c.39.46.82.89 1.28 1.28l-.3 1.47 2.2 1.27 1.13-1c.56.2 1.14.36 1.74.47l.48 1.42h2.54l.48-1.43c.6-.1 1.18-.26 1.74-.47l1.13 1 2.2-1.27-.3-1.47c.46-.39.89-.82 1.28-1.28l1.47.3 1.27-2.2-1-1.13c.2-.56.36-1.14.47-1.74zm-11.43 2.54c-2.1 0-3.81-1.71-3.81-3.81s1.71-3.81 3.81-3.81 3.81 1.71 3.81 3.81c0 2.11-1.7 3.81-3.81 3.81z" fill="#ff735a"></path><g><path d="m53.57 53.19c-4.2 0-7.62-3.42-7.62-7.62s3.42-7.62 7.62-7.62 7.62 3.42 7.62 7.62-3.42 7.62-7.62 7.62zm0-12.7c-2.8 0-5.08 2.28-5.08 5.08s2.28 5.08 5.08 5.08 5.08-2.28 5.08-5.08-2.28-5.08-5.08-5.08z" fill="#f75a42" ></path></g></svg>