<svg xmlns="http://www.w3.org/2000/svg" version="1.1" width="512" height="512" x="0" y="0" viewBox="0 0 512 512" style="enable-background:new 0 0 512 512" xml:space="preserve">
	<path d="M437,61c-41.4,0-75,33.6-75,75v30c0,8.399,6.599,15,15,15h120c8.401,0,15-6.601,15-15v-30   C512,94.6,478.4,61,437,61z" fill="#368dcf" ></path>
	<path d="M256,151c-41.4,0-75,33.6-75,75v30c0,8.399,6.599,15,15,15h120c8.401,0,15-6.601,15-15v-30   C331,184.6,297.4,151,256,151z" fill="#368dcf" ></path>
	<path d="M75,241c-41.4,0-75,33.6-75,75v30c0,8.399,6.599,15,15,15h120c8.401,0,15-6.601,15-15v-30   C150,274.6,116.4,241,75,241z" fill="#368dcf" ></path>
	<path d="M135,391H15c-8.401,0-15,6.599-15,15v76l24.3,17.699h125.4c0.3-0.899,0.3-1.8,0.3-2.699v-91   C150,397.599,143.401,391,135,391z" fill="#ff3f2e" ></path>
	<path d="M316,301H196c-8.401,0-15,6.599-15,15v181c0,0.899,0,1.8,0.3,2.699h149.4   c0.3-0.899,0.3-1.8,0.3-2.699V316C331,307.599,324.401,301,316,301z" fill="#ff3f2e"  ></path>
	<path d="M497,211H377c-8.401,0-15,6.599-15,15v271c0,0.899,0,1.8,0.3,2.699h129L512,482V226   C512,217.599,505.401,211,497,211z" fill="#ff3f2e" ></path>
<path d="M512,136v30c0,8.399-6.599,15-15,15h-60V61C478.4,61,512,94.6,512,136z" fill="#2b75ad" ></path>
	<path  d="M512,226v256l-20.7,17.699H437V211h60C505.401,211,512,217.599,512,226z" fill="#cf0404" ></path>
	<path d="M331,316v181c0,0.899,0,1.8-0.3,2.699H256V301h60C324.401,301,331,307.599,331,316z" fill="#cf0404"  ></path>
<path d="M331,226v30c0,8.399-6.599,15-15,15h-60V151C297.4,151,331,184.6,331,226z" fill="#2b75ad" ></path>
<path d="M150,406v91c0,0.899,0,1.8-0.3,2.699H75V391h60C143.401,391,150,397.599,150,406z" fill="#cf0404" ></path>
<path d="M150,316v30c0,8.399-6.599,15-15,15H75V241C116.4,241,150,274.6,150,316z" fill="#2b75ad"  ></path>
<path d="M75,181c-24.901,0-45,20.099-45,45c0,24.899,20.099,45,45,45s45-20.101,45-45  C120,201.099,99.901,181,75,181z" fill="#1ea1e3" ></path>
<path d="M75,271v-90c24.901,0,45,20.099,45,45C120,250.899,99.901,271,75,271z" fill="#368dcf"  ></path>
	<path d="M437,0c-24.901,0-45,20.099-45,45c0,24.899,20.099,45,45,45s45-20.101,45-45   C482,20.099,461.901,0,437,0z" fill="#1ea1e3" ></path>
	<path d="M256,91c-24.901,0-45,20.099-45,45c0,24.899,20.099,45,45,45s45-20.101,45-45   C301,111.099,280.901,91,256,91z" fill="#1ea1e3"  ></path>
	<path d="M482,45c0,24.899-20.099,45-45,45V0C461.901,0,482,20.099,482,45z" fill="#368dcf"  ></path>
	<path d="M256,181V91c24.901,0,45,20.099,45,45C301,160.899,280.901,181,256,181z" fill="#368dcf" ></path>
<path d="M512,482v15c0,8.399-6.599,15-15,15H15c-8.401,0-15-6.601-15-15v-15H512z" fill="#3f6199" ></path>
<path d="M512,482v15c0,8.399-6.599,15-15,15H256v-30H512z" fill="#355382" ></path>
</svg>